<mxfile host="65bd71144e">
    <diagram id="C03Q_TejMCGJm7Z_tvhU" name="Page-1">
        <mxGraphModel dx="2503" dy="2570" grid="1" gridSize="10" guides="1" tooltips="1" connect="1" arrows="1" fold="1" page="1" pageScale="1" pageWidth="827" pageHeight="1169" math="1" shadow="0">
            <root>
                <mxCell id="0"/>
                <mxCell id="1" parent="0"/>
                <mxCell id="35" value="EnhancedIndexingStrategy" style="swimlane;" parent="1" vertex="1">
                    <mxGeometry x="114" y="275" width="600" height="620" as="geometry"/>
                </mxCell>
                <mxCell id="36" value="EnhancedIndexingOptimizer" style="swimlane;" parent="35" vertex="1">
                    <mxGeometry y="50" width="590" height="200" as="geometry"/>
                </mxCell>
                <mxCell id="37" value="Solving Optimization Problem:" style="text;html=1;align=center;verticalAlign=middle;resizable=0;points=[];autosize=1;strokeColor=none;fillColor=none;" parent="36" vertex="1">
                    <mxGeometry x="5" y="30" width="180" height="20" as="geometry"/>
                </mxCell>
                <mxCell id="77" value="" style="group" vertex="1" connectable="0" parent="36">
                    <mxGeometry x="-10" y="60" width="600" height="120" as="geometry"/>
                </mxCell>
                <mxCell id="70" value="$$ s.t. w &amp;gt;= 0 $$" style="text;html=1;align=center;verticalAlign=middle;resizable=0;points=[];autosize=1;strokeColor=none;fillColor=none;" vertex="1" parent="77">
                    <mxGeometry x="85.11363636363636" y="20" width="100" height="20" as="geometry"/>
                </mxCell>
                <mxCell id="71" value="$$ sum(w) == 1 $$" style="text;html=1;align=center;verticalAlign=middle;resizable=0;points=[];autosize=1;strokeColor=none;fillColor=none;" vertex="1" parent="77">
                    <mxGeometry x="110.00363636363636" y="40" width="120" height="20" as="geometry"/>
                </mxCell>
                <mxCell id="72" value="$$ sum(|w - w_0|) &amp;lt;= \delta $$" style="text;html=1;align=center;verticalAlign=middle;resizable=0;points=[];autosize=1;strokeColor=none;fillColor=none;" vertex="1" parent="77">
                    <mxGeometry x="100.00454545454545" y="60" width="180" height="20" as="geometry"/>
                </mxCell>
                <mxCell id="73" value="$$ |d| &amp;gt;= b_{dev} $$" style="text;html=1;align=center;verticalAlign=middle;resizable=0;points=[];autosize=1;strokeColor=none;fillColor=none;" vertex="1" parent="77">
                    <mxGeometry x="100.00545454545454" y="80" width="120" height="20" as="geometry"/>
                </mxCell>
                <mxCell id="74" value="$$ |v| &amp;gt;= f_dev$$" style="text;html=1;align=center;verticalAlign=middle;resizable=0;points=[];autosize=1;strokeColor=none;fillColor=none;" vertex="1" parent="77">
                    <mxGeometry x="110.00363636363636" y="100" width="110" height="20" as="geometry"/>
                </mxCell>
                <mxCell id="69" value="$$ max_w d \cdot r - \lambda \times (v \cdot cov_b \cdot v + var_u \cdot d^2)&amp;nbsp;$$" style="text;html=1;align=center;verticalAlign=middle;resizable=0;points=[];autosize=1;strokeColor=none;fillColor=none;" vertex="1" parent="77">
                    <mxGeometry width="440" height="20" as="geometry"/>
                </mxCell>
                <mxCell id="79" value="NOTE: `d` is benchmark deviation, `r` is expected return, `w` is portfolio &lt;br&gt;weight&amp;nbsp;and `v` is factor deviation, `w_0` is benchmark weight" style="text;html=1;align=center;verticalAlign=middle;resizable=0;points=[];autosize=1;strokeColor=none;fillColor=none;" vertex="1" parent="77">
                    <mxGeometry x="210" y="95" width="390" height="30" as="geometry"/>
                </mxCell>
                <mxCell id="91" style="edgeStyle=none;html=1;entryX=0.75;entryY=1;entryDx=0;entryDy=0;fontSize=18;" edge="1" parent="35" source="90" target="36">
                    <mxGeometry relative="1" as="geometry">
                        <Array as="points">
                            <mxPoint x="443" y="435"/>
                        </Array>
                    </mxGeometry>
                </mxCell>
                <mxCell id="92" value="self.optimizer" style="edgeLabel;html=1;align=center;verticalAlign=middle;resizable=0;points=[];fontSize=18;" vertex="1" connectable="0" parent="91">
                    <mxGeometry x="0.1169" relative="1" as="geometry">
                        <mxPoint as="offset"/>
                    </mxGeometry>
                </mxCell>
                <mxCell id="90" value="&lt;b&gt;&lt;font style=&quot;font-size: 18px&quot;&gt;generate_target_weight_position&lt;/font&gt;&lt;/b&gt;:&lt;br&gt;1. get the risk data on the last day(risk data can be created by &amp;lt;qlib.model.riskmodel.structured.StructuredCovEstimator&amp;gt;&lt;br&gt;2. use the latest score&lt;br&gt;3. get the current weight&lt;br&gt;4. get bench weight (mind here D.instrument is used, so the strategy is not fully decoupled)&lt;br&gt;5. delete the blacklist&lt;br&gt;6. calculate the best weight using self.optimizer (EnhancedIndexingOptimizer)&lt;br&gt;7. submit the orders" style="html=1;labelPosition=center;verticalLabelPosition=middle;align=left;verticalAlign=middle;whiteSpace=wrap;spacingTop=2;horizontal=1;" vertex="1" parent="35">
                    <mxGeometry y="260" width="320" height="350" as="geometry"/>
                </mxCell>
            </root>
        </mxGraphModel>
    </diagram>
</mxfile>